<svg xmlns="http://www.w3.org/2000/svg" width="1200" height="800" viewBox="0 0 1200 800">
  <!-- 背景 -->
  <rect width="1200" height="800" fill="#f8f9fa"/>
  
  <!-- 标题 -->
  <text x="600" y="30" font-family="Arial, sans-serif" font-size="24" font-weight="bold" text-anchor="middle" fill="#333">药配通 - 中药配比查询与管理平台原型</text>
  
  <!-- 桌面版界面 -->
  <g id="desktop-version">
    <!-- 桌面版容器 -->
    <rect x="50" y="60" width="550" height="650" rx="8" ry="8" fill="white" stroke="#e0e0e0" stroke-width="2"/>
    <text x="325" y="90" font-family="Arial, sans-serif" font-size="18" font-weight="bold" text-anchor="middle" fill="#333">桌面版界面</text>
    
    <!-- 导航栏 -->
    <rect x="70" y="110" width="510" height="50" rx="4" ry="4" fill="#2c5aa0"/>
    <text x="120" y="140" font-family="Arial, sans-serif" font-size="16" font-weight="bold" fill="white">药配通</text>
    <text x="200" y="140" font-family="Arial, sans-serif" font-size="14" fill="white">首页</text>
    <text x="260" y="140" font-family="Arial, sans-serif" font-size="14" fill="white">配方查询</text>
    <text x="340" y="140" font-family="Arial, sans-serif" font-size="14" fill="white">学习中心</text>
    <text x="420" y="140" font-family="Arial, sans-serif" font-size="14" fill="white">关于我们</text>
    <text x="500" y="140" font-family="Arial, sans-serif" font-size="14" fill="white">联系我们</text>
    
    <!-- 快速查询引导区域 -->
    <rect x="70" y="180" width="510" height="80" rx="4" ry="4" fill="#e8f4f8"/>
    <text x="90" y="210" font-family="Arial, sans-serif" font-size="16" font-weight="bold" fill="#333">直接查询中药配比信息</text>
    <text x="90" y="235" font-family="Arial, sans-serif" font-size="14" fill="#666">无需登录，立即开始使用</text>
    <rect x="430" y="190" width="150" height="40" rx="20" ry="20" fill="#2c5aa0"/>
    <text x="505" y="215" font-family="Arial, sans-serif" font-size="14" font-weight="bold" fill="white" text-anchor="middle">开始查询</text>
    
    <!-- 搜索区域 -->
    <rect x="70" y="280" width="510" height="100" rx="4" ry="4" fill="#f9f9f9" stroke="#e0e0e0"/>
    <text x="90" y="310" font-family="Arial, sans-serif" font-size="16" font-weight="bold" fill="#333">中药配方查询</text>
    <rect x="90" y="320" width="300" height="40" rx="4" ry="4" fill="white" stroke="#ddd"/>
    <text x="105" y="345" font-family="Arial, sans-serif" font-size="14" fill="#999">输入中药名称或配方名称...</text>
    <rect x="410" y="320" width="140" height="40" rx="4" ry="4" fill="#3cb371"/>
    <text x="480" y="345" font-family="Arial, sans-serif" font-size="14" font-weight="bold" fill="white" text-anchor="middle">查询</text>
    
    <!-- 推荐配方区域 -->
    <rect x="70" y="400" width="510" height="220" rx="4" ry="4" fill="#f9f9f9" stroke="#e0e0e0"/>
    <text x="90" y="430" font-family="Arial, sans-serif" font-size="16" font-weight="bold" fill="#333">推荐配方</text>
    
    <!-- 配方卡片 1 -->
    <rect x="90" y="440" width="470" height="45" rx="4" ry="4" fill="white" stroke="#e0e0e0"/>
    <text x="110" y="467" font-family="Arial, sans-serif" font-size="14" font-weight="bold" fill="#333">四君子汤</text>
    <text x="250" y="467" font-family="Arial, sans-serif" font-size="14" fill="#666">人参、白术、茯苓、甘草</text>
    <rect x="460" y="445" width="80" height="35" rx="18" ry="18" fill="#ff9800"/>
    <text x="500" y="467" font-family="Arial, sans-serif" font-size="12" font-weight="bold" fill="white" text-anchor="middle">查看详情</text>
    
    <!-- 配方卡片 2 -->
    <rect x="90" y="495" width="470" height="45" rx="4" ry="4" fill="white" stroke="#e0e0e0"/>
    <text x="110" y="522" font-family="Arial, sans-serif" font-size="14" font-weight="bold" fill="#333">四物汤</text>
    <text x="250" y="522" font-family="Arial, sans-serif" font-size="14" fill="#666">当归、川芎、白芍、熟地</text>
    <rect x="460" y="500" width="80" height="35" rx="18" ry="18" fill="#ff9800"/>
    <text x="500" y="522" font-family="Arial, sans-serif" font-size="12" font-weight="bold" fill="white" text-anchor="middle">查看详情</text>
    
    <!-- 配方卡片 3 -->
    <rect x="90" y="550" width="470" height="45" rx="4" ry="4" fill="white" stroke="#e0e0e0"/>
    <text x="110" y="577" font-family="Arial, sans-serif" font-size="14" font-weight="bold" fill="#333">六味地黄丸</text>
    <text x="250" y="577" font-family="Arial, sans-serif" font-size="14" fill="#666">熟地、山茱萸、山药、泽泻等</text>
    <rect x="460" y="555" width="80" height="35" rx="18" ry="18" fill="#ff9800"/>
    <text x="500" y="577" font-family="Arial, sans-serif" font-size="12" font-weight="bold" fill="white" text-anchor="middle">查看详情</text>
    
    <!-- 底部导航 -->
    <rect x="70" y="640" width="510" height="50" rx="4" ry="4" fill="#f0f0f0"/>
    <text x="120" y="670" font-family="Arial, sans-serif" font-size="12" fill="#666">关于我们</text>
    <text x="200" y="670" font-family="Arial, sans-serif" font-size="12" fill="#666">使用帮助</text>
    <text x="280" y="670" font-family="Arial, sans-serif" font-size="12" fill="#666">隐私政策</text>
    <text x="360" y="670" font-family="Arial, sans-serif" font-size="12" fill="#666">联系我们</text>
    <text x="500" y="670" font-family="Arial, sans-serif" font-size="12" fill="#666">© 2023 药配通</text>
  </g>
  
  <!-- 移动版界面 -->
  <g id="mobile-version">
    <!-- 移动版容器 -->
    <rect x="650" y="60" width="280" height="650" rx="8" ry="8" fill="white" stroke="#e0e0e0" stroke-width="2"/>
    <text x="790" y="90" font-family="Arial, sans-serif" font-size="18" font-weight="bold" text-anchor="middle" fill="#333">移动版界面</text>
    
    <!-- 移动导航栏 -->
    <rect x="670" y="110" width="240" height="50" rx="4" ry="4" fill="#2c5aa0"/>
    <text x="695" y="140" font-family="Arial, sans-serif" font-size="16" font-weight="bold" fill="white">药配通</text>
    <rect x="840" y="120" width="30" height="30" rx="2" ry="2" fill="none" stroke="white" stroke-width="2"/>
    <line x1="845" y1="127" x2="865" y2="127" stroke="white" stroke-width="2"/>
    <line x1="845" y1="137" x2="865" y2="137" stroke="white" stroke-width="2"/>
    <line x1="845" y1="147" x2="865" y2="147" stroke="white" stroke-width="2"/>
    
    <!-- 快速查询引导区域 -->
    <rect x="670" y="180" width="240" height="80" rx="4" ry="4" fill="#e8f4f8"/>
    <text x="690" y="210" font-family="Arial, sans-serif" font-size="16" font-weight="bold" fill="#333">直接查询配方</text>
    <text x="690" y="230" font-family="Arial, sans-serif" font-size="12" fill="#666">无需登录，立即可用</text>
    
    <!-- 搜索区域 -->
    <rect x="670" y="280" width="240" height="90" rx="4" ry="4" fill="#f9f9f9" stroke="#e0e0e0"/>
    <text x="690" y="305" font-family="Arial, sans-serif" font-size="16" font-weight="bold" fill="#333">配方查询</text>
    <rect x="690" y="315" width="200" height="40" rx="4" ry="4" fill="white" stroke="#ddd"/>
    <text x="705" y="340" font-family="Arial, sans-serif" font-size="14" fill="#999">输入关键词...</text>
    <rect x="790" y="365" width="100" height="35" rx="18" ry="18" fill="#3cb371"/>
    <text x="840" y="387" font-family="Arial, sans-serif" font-size="14" font-weight="bold" fill="white" text-anchor="middle">查询</text>
    
    <!-- 推荐配方区域 -->
    <rect x="670" y="390" width="240" height="220" rx="4" ry="4" fill="#f9f9f9" stroke="#e0e0e0"/>
    <text x="690" y="415" font-family="Arial, sans-serif" font-size="16" font-weight="bold" fill="#333">推荐配方</text>
    
    <!-- 移动版配方卡片 1 -->
    <rect x="690" y="425" width="200" height="60" rx="4" ry="4" fill="white" stroke="#e0e0e0"/>
    <text x="705" y="445" font-family="Arial, sans-serif" font-size="14" font-weight="bold" fill="#333">四君子汤</text>
    <text x="705" y="460" font-family="Arial, sans-serif" font-size="12" fill="#666">人参、白术、茯苓、甘草</text>
    <rect x="770" y="465" width="120" height="30" rx="15" ry="15" fill="#ff9800"/>
    <text x="830" y="483" font-family="Arial, sans-serif" font-size="12" font-weight="bold" fill="white" text-anchor="middle">查看详情</text>
    
    <!-- 移动版配方卡片 2 -->
    <rect x="690" y="505" width="200" height="60" rx="4" ry="4" fill="white" stroke="#e0e0e0"/>
    <text x="705" y="525" font-family="Arial, sans-serif" font-size="14" font-weight="bold" fill="#333">四物汤</text>
    <text x="705" y="540" font-family="Arial, sans-serif" font-size="12" fill="#666">当归、川芎、白芍、熟地</text>
    <rect x="770" y="545" width="120" height="30" rx="15" ry="15" fill="#ff9800"/>
    <text x="830" y="563" font-family="Arial, sans-serif" font-size="12" font-weight="bold" fill="white" text-anchor="middle">查看详情</text>
    
    <!-- 底部导航栏 -->
    <rect x="670" y="640" width="240" height="50" rx="4" ry="4" fill="#2c5aa0"/>
    <circle cx="700" cy="665" r="15" fill="#ff9800"/>
    <text x="700" y="670" font-family="Arial, sans-serif" font-size="10" font-weight="bold" fill="white" text-anchor="middle">首</text>
    <circle cx="760" cy="665" r="15" fill="#2c5aa0" stroke="white" stroke-width="2"/>
    <text x="760" y="670" font-family="Arial, sans-serif" font-size="10" font-weight="bold" fill="white" text-anchor="middle">查</text>
    <circle cx="820" cy="665" r="15" fill="#2c5aa0" stroke="white" stroke-width="2"/>
    <text x="820" y="670" font-family="Arial, sans-serif" font-size="10" font-weight="bold" fill="white" text-anchor="middle">学</text>
    <circle cx="880" cy="665" r="15" fill="#2c5aa0" stroke="white" stroke-width="2"/>
    <text x="880" y="670" font-family="Arial, sans-serif" font-size="10" font-weight="bold" fill="white" text-anchor="middle">关</text>
  </g>
  
  <!-- 交互流程说明 -->
  <g id="interaction-flow">
    <rect x="970" y="60" width="180" height="650" rx="8" ry="8" fill="white" stroke="#e0e0e0" stroke-width="2"/>
    <text x="1060" y="90" font-family="Arial, sans-serif" font-size="18" font-weight="bold" text-anchor="middle" fill="#333">用户交互流程</text>
    
    <!-- 流程步骤 -->
    <circle cx="1060" cy="130" r="15" fill="#2c5aa0"/>
    <text x="1060" y="135" font-family="Arial, sans-serif" font-size="12" font-weight="bold" fill="white" text-anchor="middle">1</text>
    <text x="1060" y="165" font-family="Arial, sans-serif" font-size="14" fill="#333" text-anchor="middle">直接搜索配方</text>
    
    <line x1="1060" y1="145" x2="1060" y2="195" stroke="#2c5aa0" stroke-width="2"/>
    
    <circle cx="1060" cy="210" r="15" fill="#2c5aa0"/>
    <text x="1060" y="215" font-family="Arial, sans-serif" font-size="12" font-weight="bold" fill="white" text-anchor="middle">2</text>
    <text x="1060" y="245" font-family="Arial, sans-serif" font-size="14" fill="#333" text-anchor="middle">查看详情</text>
    
    <line x1="1060" y1="225" x2="1060" y2="275" stroke="#2c5aa0" stroke-width="2"/>
    
    <circle cx="1060" cy="290" r="15" fill="#2c5aa0"/>
    <text x="1060" y="295" font-family="Arial, sans-serif" font-size="12" font-weight="bold" fill="white" text-anchor="middle">3</text>
    <text x="1060" y="325" font-family="Arial, sans-serif" font-size="14" fill="#333" text-anchor="middle">获取配比信息</text>
    
    <line x1="1060" y1="305" x2="1060" y2="355" stroke="#2c5aa0" stroke-width="2"/>
    
    <circle cx="1060" cy="370" r="15" fill="#2c5aa0"/>
    <text x="1060" y="375" font-family="Arial, sans-serif" font-size="12" font-weight="bold" fill="white" text-anchor="middle">4</text>
    <text x="1060" y="405" font-family="Arial, sans-serif" font-size="14" fill="#333" text-anchor="middle">参考使用建议</text>
    
    <line x1="1060" y1="385" x2="1060" y2="435" stroke="#2c5aa0" stroke-width="2"/>
    
    <circle cx="1060" cy="450" r="15" fill="#2c5aa0"/>
    <text x="1060" y="455" font-family="Arial, sans-serif" font-size="12" font-weight="bold" fill="white" text-anchor="middle">5</text>
    <text x="1060" y="485" font-family="Arial, sans-serif" font-size="14" fill="#333" text-anchor="middle">学习中药知识</text>
    
    <line x1="1060" y1="465" x2="1060" y2="515" stroke="#2c5aa0" stroke-width="2"/>
    
    <circle cx="1060" cy="530" r="15" fill="#2c5aa0"/>
    <text x="1060" y="535" font-family="Arial, sans-serif" font-size="12" font-weight="bold" fill="white" text-anchor="middle">6</text>
    <text x="1060" y="565" font-family="Arial, sans-serif" font-size="14" fill="#333" text-anchor="middle">查询更多配方</text>
    
    <!-- 核心功能模块说明 -->
    <rect x="970" y="670" width="180" height="110" rx="4" ry="4" fill="#e8f4f8"/>
    <text x="1060" y="695" font-family="Arial, sans-serif" font-size="16" font-weight="bold" text-anchor="middle" fill="#333">核心功能</text>
    <text x="1060" y="720" font-family="Arial, sans-serif" font-size="12" fill="#666" text-anchor="middle">• 直接配方查询与搜索</text>
    <text x="1060" y="740" font-family="Arial, sans-serif" font-size="12" fill="#666" text-anchor="middle">• 详细配比信息展示</text>
    <text x="1060" y="760" font-family="Arial, sans-serif" font-size="12" fill="#666" text-anchor="middle">• 无需登录即可使用</text>
  </g>
</svg>